<svg xmlns="http://www.w3.org/2000/svg" viewBox="0 0 50 50" enable-background="new 0 0 50 50">
    <path fill="#004aaf" style="text-indent:0;text-align:start;line-height:normal;text-transform:none;block-progression:tb;-inkscape-font-specification:Bitstream Vera Sans" d="M 24.84375 0 A 1.0001 1.0001 0 0 0 24.59375 0.09375 L 0.59375 10.875 A 1.0001 1.0001 0 0 0 0 11.8125 L 0 16.3125 A 1.0001 1.0001 0 0 0 1.40625 17.21875 L 2 16.9375 L 2 49 A 1.0001 1.0001 0 0 0 3 50 L 47 50 A 1.0001 1.0001 0 0 0 48 49 L 48 16.9375 L 48.59375 17.21875 A 1.0001 1.0001 0 0 0 50 16.3125 L 50 11.8125 A 1.0001 1.0001 0 0 0 49.40625 10.875 L 25.40625 0.09375 A 1.0001 1.0001 0 0 0 24.9375 0 A 1.0001 1.0001 0 0 0 24.84375 0 z M 25 2.09375 L 48 12.4375 L 48 14.75 L 47.5625 14.5625 A 1.0001 1.0001 0 0 0 47.5 14.53125 L 47.46875 14.5 A 1.0001 1.0001 0 0 0 47.40625 14.46875 L 47.375 14.46875 A 1.0001 1.0001 0 0 0 47.28125 14.4375 L 25.40625 4.5 A 1.0001 1.0001 0 0 0 24.59375 4.5 L 2.75 14.40625 L 2.71875 14.40625 A 1.0001 1.0001 0 0 0 2.625 14.46875 L 2.59375 14.46875 A 1.0001 1.0001 0 0 0 2.4375 14.5625 L 2 14.75 L 2 12.4375 L 25 2.09375 z M 25 6.5 L 46 16.03125 L 46 48 L 4 48 L 4 16.03125 L 25 6.5 z M 32.84375 16.96875 C 32.648301 16.977854 32.446265 17.003477 32.25 17.03125 C 30.679878 17.253437 29.077354 18.053794 27.78125 19.40625 C 25.939369 21.248131 25.116612 23.712113 25.625 25.875 L 25.03125 26.5 L 15.90625 17.40625 A 1.0001 1.0001 0 0 0 15.1875 17.09375 L 15 17.09375 A 1.0001 1.0001 0 0 0 14.90625 17.09375 A 1.0001 1.0001 0 0 0 14.28125 17.40625 C 11.695555 19.991945 11.712471 24.235842 14.40625 26.8125 L 19.5625 31.96875 L 12.1875 39.40625 A 1.0001 1.0001 0 0 0 12.4375 41 C 12.47897 41.03845 12.50436 41.09962 12.5625 41.15625 C 12.730029 41.319409 12.940818 41.528413 13.15625 41.75 C 13.371682 41.971587 13.614984 42.200964 13.78125 42.375 C 13.947516 42.549036 14.009824 42.634824 14.09375 42.71875 A 1.0001 1.0001 0 0 0 15.5 42.71875 L 22.84375 35.375 L 25.1875 37.71875 A 1.0001 1.0001 0 0 0 26.59375 37.71875 L 28 36.3125 L 34.40625 42.71875 A 1.0001 1.0001 0 0 0 35.8125 42.71875 C 35.955351 42.575899 35.990781 42.524684 36.15625 42.34375 C 36.321719 42.162816 36.537608 41.912029 36.75 41.6875 C 36.962392 41.462971 37.158098 41.240096 37.3125 41.09375 C 37.34639 41.06162 37.3487 41.0547 37.375 41.03125 A 1.0001 1.0001 0 0 0 37.40625 41 C 37.41195 40.9951 37.43294 41.0039 37.4375 41 C 37.47942 40.97564 37.47814 40.96139 37.46875 40.96875 A 1.0001 1.0001 0 0 0 37.71875 39.40625 L 28.25 29.9375 L 29.0625 29.15625 C 31.179543 29.649551 33.590135 28.909865 35.5 27 C 38.086942 24.413058 38.691239 20.599547 36.53125 18.3125 A 1.0001 1.0001 0 0 0 36.5 18.28125 C 35.531813 17.313063 34.211891 16.905025 32.84375 16.96875 z M 33.25 18.96875 C 33.980846 19.006777 34.617178 19.258046 35.0625 19.6875 C 35.07265 19.6973 35.08378 19.70877 35.09375 19.71875 C 36.301567 21.040995 36.091056 23.596444 34.09375 25.59375 C 32.417047 27.270453 30.402744 27.677456 29.0625 27.15625 A 1.0001 1.0001 0 0 0 28 27.40625 L 14.8125 40.5625 C 14.73783 40.48504 14.671474 40.423695 14.59375 40.34375 C 14.50492 40.25238 14.431339 40.182578 14.34375 40.09375 L 21.625 32.71875 A 1.0001 1.0001 0 0 0 21.75 32.59375 L 25.65625 28.65625 A 1.0054782 1.0054782 0 0 0 25.71875 28.59375 L 27.40625 26.90625 A 1.0001 1.0001 0 0 0 27.625 25.84375 C 27.119989 24.54515 27.65445 22.376798 29.21875 20.8125 A 1.0001 1.0001 0 0 0 29.21875 20.78125 C 30.222646 19.733706 31.420122 19.152813 32.5 19 C 32.765432 18.962439 33.006385 18.956074 33.25 18.96875 z M 15.21875 19.53125 L 23.59375 27.90625 L 20.96875 30.5625 L 15.8125 25.40625 A 1.0001 1.0001 0 0 0 15.78125 25.375 C 14.101017 23.767821 13.998421 21.336588 15.21875 19.53125 z M 26.84375 31.375 L 35.53125 40.0625 C 35.44595 40.15039 35.367005 40.221844 35.28125 40.3125 C 35.20399 40.39417 35.167792 40.482962 35.09375 40.5625 L 28.71875 34.1875 A 1.0001 1.0001 0 0 0 27.28125 34.1875 L 25.875 35.5625 L 24.25 33.9375 L 26.84375 31.375 z"/>
</svg>
